<svg width="158" height="40" viewBox="0 0 158 40" fill="none" xmlns="http://www.w3.org/2000/svg">
<path d="M67.9685 18.8461V9.13452H61.6161V0.583008L51.4889 3.63823V9.13452H43.0801V18.8461H51.4889V27.9466C51.4889 37.3542 55.5212 41.2035 67.9809 39.6743V30.5149C63.8897 30.7568 61.6285 30.5738 61.6285 27.7047V18.8461H67.9685Z" fill="url(#paint0_linear)"/>
<path d="M47.2768 9.13477L37.9313 39.6746H28.0367L23.6384 24.1627L19.2401 39.6746H9.34556L0 9.13477H10.7507L14.7829 25.7508L19.3611 9.13477H27.9126L32.4939 25.7508L36.5262 9.13477H47.2768Z" fill="black"/>
<path d="M67.4575 3.33092H68.1927C68.329 3.32447 68.4572 3.2645 68.5496 3.16402C68.6419 3.06354 68.6909 2.93069 68.6858 2.79431C68.6887 2.72684 68.6783 2.65946 68.655 2.59605C68.6318 2.53264 68.5962 2.47447 68.5503 2.42487C68.5045 2.37528 68.4493 2.33525 68.3879 2.30709C68.3265 2.27894 68.2602 2.26321 68.1927 2.26081H67.4575V3.33092ZM68.0035 3.95127H67.4575V5.21368H66.7441V1.59084H68.1927C68.3511 1.59002 68.5081 1.62056 68.6546 1.68072C68.8012 1.74087 68.9344 1.82943 69.0466 1.94131C69.1587 2.05319 69.2476 2.18616 69.3082 2.33256C69.3687 2.47896 69.3997 2.63589 69.3992 2.79431C69.3959 3.01842 69.3284 3.23686 69.2047 3.42377C69.081 3.61068 68.9063 3.75821 68.7013 3.84891L69.5047 5.21678H68.7324L68.0035 3.95127Z" fill="black"/>
<path d="M67.968 0.505586C67.377 0.504973 66.799 0.679713 66.3073 1.00769C65.8157 1.33567 65.4323 1.80214 65.2059 2.34807C64.9794 2.89399 64.92 3.49483 65.0351 4.07454C65.1503 4.65424 65.4348 5.18676 65.8528 5.60468C66.2707 6.02261 66.8032 6.30715 67.3829 6.42231C67.9626 6.53746 68.5635 6.47805 69.1094 6.25158C69.6553 6.02512 70.1218 5.64179 70.4498 5.15011C70.7777 4.65843 70.9525 4.0805 70.9519 3.48947C70.9502 2.6986 70.6353 1.94059 70.0761 1.38136C69.5169 0.822124 68.7589 0.507225 67.968 0.505586V0.505586ZM67.968 6.97893C67.2778 6.97893 66.6032 6.77428 66.0293 6.39085C65.4555 6.00742 65.0082 5.46244 64.7441 4.82483C64.48 4.18721 64.4109 3.4856 64.5456 2.80871C64.6802 2.13182 65.0125 1.51005 65.5006 1.02204C65.9886 0.534032 66.6103 0.201692 67.2872 0.0670507C67.9641 -0.0675911 68.6657 0.00151194 69.3033 0.265621C69.941 0.529731 70.4859 0.976984 70.8694 1.55082C71.2528 2.12466 71.4574 2.79932 71.4574 3.48947C71.4574 4.41493 71.0898 5.30249 70.4354 5.95689C69.781 6.61129 68.8934 6.97893 67.968 6.97893Z" fill="black"/>
<path d="M91.862 9.09409L88.3911 20.4155H84.7217L83.0964 14.6617L81.4618 20.4155L77.7924 20.4124L74.334 9.08789L78.3197 9.09099L79.8117 15.2511L81.5114 9.09099H84.6814L86.3781 15.2511L87.8762 9.09409H91.862Z" fill="black"/>
<path d="M100.496 14.7612C100.513 14.4527 100.466 14.1441 100.357 13.8549C100.248 13.5658 100.081 13.3023 99.8651 13.0813C99.6493 12.8602 99.3899 12.6864 99.1034 12.5709C98.8169 12.4553 98.5096 12.4006 98.2008 12.4101C96.9074 12.4101 95.9334 13.3592 95.9334 14.7643C95.9334 16.1694 96.9074 17.1216 98.1977 17.1216C98.5074 17.1312 98.8158 17.0761 99.1031 16.9601C99.3904 16.844 99.6504 16.6694 99.8666 16.4474C100.083 16.2254 100.25 15.9608 100.359 15.6705C100.467 15.3802 100.514 15.0705 100.496 14.7612V14.7612ZM92.1617 14.7612C92.1482 13.5618 92.4915 12.3856 93.1481 11.3818C93.8047 10.3781 94.7449 9.59225 95.8492 9.12416C96.9535 8.65607 98.1721 8.52687 99.35 8.75299C100.528 8.97911 101.612 9.55033 102.464 10.3941C103.317 11.2378 103.899 12.3159 104.138 13.4914C104.376 14.6669 104.259 15.8868 103.803 16.9958C103.346 18.1049 102.57 19.0532 101.573 19.7201C100.576 20.387 99.4033 20.7425 98.2039 20.7413C97.4115 20.7537 96.6247 20.6079 95.8893 20.3125C95.154 20.017 94.485 19.5779 93.9215 19.0207C93.358 18.4635 92.9113 17.7996 92.6075 17.0676C92.3037 16.3357 92.149 15.5505 92.1524 14.7581" fill="black"/>
<path d="M113.055 8.87713V13.0304C111.56 12.8039 109.659 13.4832 109.643 15.7258V20.4249H105.896V9.10045H109.656V11.2065C110.109 9.65566 111.535 8.87402 113.052 8.87402" fill="black"/>
<path d="M121.451 20.4313L118.238 15.605V20.4282H114.479L114.485 4.5752L118.244 4.5783L118.241 13.8401L121.163 9.10685L125.511 9.10995L121.706 14.7675L125.663 20.4313H121.451Z" fill="black"/>
<path d="M126.756 9.10988H130.516V20.4344H126.753L126.756 9.10988ZM126.465 6.00814C126.465 5.43229 126.694 4.88003 127.101 4.47285C127.508 4.06567 128.06 3.83691 128.636 3.83691C129.212 3.83691 129.764 4.06567 130.171 4.47285C130.579 4.88003 130.807 5.43229 130.807 6.00814C130.807 6.58398 130.579 7.13624 130.171 7.54342C129.764 7.95061 129.212 8.17936 128.636 8.17936C128.06 8.17936 127.508 7.95061 127.101 7.54342C126.694 7.13624 126.465 6.58398 126.465 6.00814" fill="black"/>
<path d="M143.764 13.6691V20.4402H140.001V14.1406C140.001 12.9185 139.276 12.3539 138.302 12.3508C137.148 12.3508 136.441 13.0518 136.441 14.4135V20.4371H132.688V9.11262H136.447V10.2386C137.067 9.33284 138.19 8.79004 139.595 8.79004C141.928 8.79004 143.761 10.3998 143.761 13.6629" fill="black"/>
<path d="M153.884 14.5563C153.884 13.9196 153.631 13.309 153.181 12.8587C152.731 12.4085 152.12 12.1556 151.483 12.1556C150.847 12.1556 150.236 12.4085 149.786 12.8587C149.336 13.309 149.083 13.9196 149.083 14.5563C149.083 15.1931 149.336 15.8037 149.786 16.2539C150.236 16.7042 150.847 16.9571 151.483 16.9571C152.12 16.9571 152.731 16.7042 153.181 16.2539C153.631 15.8037 153.884 15.1931 153.884 14.5563V14.5563ZM157.606 9.12207V19.9782C157.606 23.7623 154.613 25.3008 151.648 25.2977C149.166 25.2977 147.098 24.3672 146.065 22.534L149.194 20.735C149.433 21.1534 149.785 21.4963 150.21 21.7244C150.634 21.9526 151.114 22.0568 151.595 22.0253C152.864 22.0253 153.881 21.3895 153.881 19.9875V18.9019C153.497 19.3652 153.01 19.7331 152.46 19.9769C151.909 20.2207 151.31 20.3337 150.708 20.307C147.56 20.307 145.32 17.6984 145.32 14.5501C145.32 11.4019 147.566 8.79949 150.714 8.80259C151.315 8.77615 151.914 8.88925 152.464 9.13302C153.014 9.3768 153.5 9.74463 153.884 10.2077V9.11897L157.606 9.12207Z" fill="black"/>
<path d="M81.3778 31.9293V35.2141C81.3778 36.278 82.2153 36.3462 83.7352 36.2563V39.6682C79.1167 40.2327 77.6216 38.8059 77.6216 35.3257V31.9293H75.9219V28.3282H77.6185V26.2903L81.3778 25.1582V28.3282H83.7476V31.9293H81.3778Z" fill="#00E600"/>
<path d="M93.2657 33.9956C93.2657 32.5254 92.2917 31.5142 90.8866 31.5142C89.4815 31.5142 88.5107 32.5099 88.5076 33.9956C88.5045 35.4814 89.4815 36.477 90.8866 36.477C92.2917 36.477 93.2626 35.4814 93.2657 33.9956ZM97.025 28.3349V39.6594H93.2626V38.6203C92.5368 39.4795 91.4946 39.9758 90.0461 39.9758C87.0125 39.9758 84.7266 37.392 84.7266 33.9956C84.7266 30.5992 87.0156 28.0186 90.0523 28.0186C91.5008 28.0186 92.5337 28.5179 93.2657 29.3802V28.3349H97.025Z" fill="#00E600"/>
<path d="M102.959 23.0117H99.1992V39.544H102.959V23.0117Z" fill="#00E600"/>
<path d="M112.764 32.7794C112.653 32.3071 112.378 31.8893 111.989 31.5994C111.6 31.3095 111.121 31.1661 110.637 31.1944C110.141 31.1649 109.65 31.3061 109.246 31.5945C108.842 31.8829 108.549 32.3011 108.416 32.7794H112.764ZM110.996 36.7651C111.761 36.7848 112.501 36.5003 113.056 35.9742L115.773 37.8787C114.641 39.3024 112.919 39.9817 110.903 39.9817C106.986 39.9817 104.563 37.3731 104.566 34.0232C104.566 30.6113 107.048 28.0213 110.593 28.0244C113.99 28.0244 116.434 30.5865 116.434 33.9829C116.435 34.4549 116.381 34.9255 116.272 35.3849H108.459C108.912 36.4736 109.908 36.7682 110.996 36.7682" fill="#00E600"/>
<path d="M129.113 32.9005V39.6716H125.351V33.3751C125.351 32.153 124.628 31.5854 123.654 31.5854C122.497 31.5854 121.793 32.2864 121.793 33.645V39.6685H118.037V28.3441H121.796V29.47C122.432 28.5643 123.543 28.0215 124.945 28.0215C127.277 28.0215 129.113 29.6313 129.11 32.8912" fill="#00E600"/>
<path d="M135.815 31.9508V35.2355C135.815 36.2994 136.653 36.3677 138.17 36.2777V39.6897C133.548 40.2542 132.053 38.8274 132.056 35.3472V31.9508H130.359V28.3497H132.059V26.3118L135.818 25.1797V28.3497H138.173V31.9508H135.815Z" fill="#00E600"/>
<defs>
<linearGradient id="paint0_linear" x1="44.9754" y1="13.8027" x2="67.9283" y2="13.6476" gradientUnits="userSpaceOnUse">
<stop stop-color="#008B00"/>
<stop offset="1" stop-color="#00E600"/>
</linearGradient>
</defs>
</svg>
